#define ff81f644e8564133d33eb8c968baae9apJY2tTn5qJbkfwzO_width 22
#define ff81f644e8564133d33eb8c968baae9apJY2tTn5qJbkfwzO_height 22
static char ff81f644e8564133d33eb8c968baae9apJY2tTn5qJbkfwzO_bits[] = {
  0x00, 0x00, 0x00, 0x06, 0x00, 0x00, 0x3C, 0x00, 0x00, 0xC4, 0x00, 0x00, 
  0x0C, 0x07, 0x00, 0x08, 0x1C, 0x00, 0x08, 0xE0, 0x00, 0x10, 0x80, 0x03, 
  0x10, 0x00, 0x0E, 0x30, 0x00, 0x07, 0x20, 0xC0, 0x03, 0x60, 0xF0, 0x00, 
  0x40, 0x18, 0x00, 0x40, 0x08, 0x00, 0xC0, 0x0C, 0x00, 0x80, 0x04, 0x00, 
  0x80, 0x05, 0x00, 0x00, 0x07, 0x00, 0x00, 0x03, 0x00, 0x00, 0x03, 0x00, 
  0x00, 0x00, 0x00, 0x00, 0x00, 0x00, };
